<?xml version="1.0" standalone="no"?>
<!DOCTYPE svg PUBLIC "-//W3C//DTD SVG 20010904//EN"
 "http://www.w3.org/TR/2001/REC-SVG-20010904/DTD/svg10.dtd">
<svg version="1.0" xmlns="http://www.w3.org/2000/svg"
 width="700.000000pt" height="700.000000pt" viewBox="0 0 700.000000 700.000000"
 preserveAspectRatio="xMidYMid meet">
<metadata>
Created by potrace 1.14, written by Peter Selinger 2001-2017
</metadata>
<g transform="translate(0.000000,700.000000) scale(0.100000,-0.100000)"
fill="#000000" stroke="none">
<path d="M3407 6254 c-1 -1 -99 -5 -217 -8 -118 -4 -233 -8 -255 -10 -22 -2
-85 -6 -140 -10 -55 -4 -121 -9 -147 -11 -168 -17 -245 -25 -278 -30 -138 -22
-198 -32 -270 -46 -30 -7 -59 -12 -65 -13 -70 -10 -119 -78 -111 -151 7 -54
22 -80 61 -104 50 -31 86 -33 211 -12 65 11 142 22 169 26 28 3 79 10 115 15
123 17 238 23 610 36 213 7 703 7 800 0 25 -2 70 -4 101 -5 l56 -1 107 -197
c58 -109 122 -227 142 -263 20 -36 58 -105 84 -155 26 -49 64 -119 84 -155 20
-36 57 -105 83 -153 54 -98 48 -94 201 -122 43 -8 147 -27 232 -43 l154 -29
16 -54 c45 -149 137 -247 275 -294 293 -100 603 175 535 472 -30 128 -120 240
-237 296 -62 29 -77 32 -163 32 -86 0 -101 -3 -160 -31 -36 -17 -91 -54 -122
-83 l-57 -52 -103 25 c-107 26 -123 29 -250 48 l-77 11 -57 111 c-155 303
-240 468 -275 533 -40 74 -45 88 -31 79 4 -2 36 -7 72 -11 36 -3 72 -8 80 -10
8 -3 35 -7 60 -10 61 -7 394 -63 450 -75 25 -5 110 -24 190 -41 80 -17 188
-42 240 -56 52 -14 104 -28 115 -30 11 -3 65 -19 120 -35 55 -17 107 -31 115
-33 9 -1 18 -19 22 -45 28 -165 190 -324 355 -349 156 -23 336 72 417 220 72
131 64 285 -23 416 -45 66 -73 93 -142 134 -152 89 -330 65 -494 -67 -27 -22
-45 -30 -55 -24 -14 7 -372 106 -415 114 -11 2 -40 9 -65 16 -25 7 -52 13 -60
15 -19 4 -260 55 -281 60 -9 2 -32 6 -50 9 -19 3 -43 7 -54 10 -23 5 -209 36
-245 41 -25 3 -91 13 -140 20 -14 2 -50 7 -80 10 -30 4 -66 8 -80 10 -14 2
-54 6 -90 10 -36 3 -78 8 -95 10 -27 4 -73 7 -255 20 -76 6 -629 22 -633 19z"/>
<path d="M1214 6109 c-9 -10 -15 -19 -12 -19 4 0 0 -21 -8 -47 -8 -27 -51
-181 -95 -343 -44 -162 -86 -315 -94 -340 -7 -25 -21 -71 -29 -102 -19 -69 4
-58 -376 -162 -151 -42 -339 -93 -418 -115 -129 -35 -170 -55 -172 -81 0 -14
39 -67 51 -68 19 -1 80 -17 399 -105 434 -120 481 -134 492 -145 9 -9 165
-560 229 -809 21 -83 39 -110 77 -118 32 -6 53 35 94 185 20 74 72 266 116
425 44 160 82 299 83 309 4 21 22 26 598 183 292 80 321 92 321 138 0 39 -10
42 -780 252 -74 20 -140 41 -147 47 -6 6 -30 79 -52 161 -23 83 -48 173 -55
200 -8 28 -45 160 -82 295 -37 135 -71 250 -76 256 -16 21 -46 22 -64 3z"/>
<path d="M3217 5439 c-58 -14 -108 -43 -159 -92 -60 -59 -93 -116 -114 -196
-63 -247 203 -503 454 -436 64 16 106 40 160 90 78 71 113 148 114 251 2 239
-232 436 -455 383z"/>
<path d="M3990 4381 c-92 -23 -168 -79 -229 -168 l-21 -31 -223 -1 c-206 -1
-279 -3 -462 -16 -92 -7 -291 -27 -390 -40 -87 -11 -131 -17 -146 -20 -9 -2
-39 -7 -66 -11 -26 -3 -57 -8 -68 -10 -11 -2 -33 -7 -50 -10 -16 -3 -84 -16
-150 -30 -66 -13 -132 -27 -148 -29 -48 -9 -121 -37 -141 -54 -51 -44 -55
-145 -9 -196 51 -54 94 -57 289 -16 138 30 278 55 364 66 25 3 56 8 70 10 14
2 50 7 80 10 30 3 62 8 70 10 8 2 53 7 100 10 47 3 103 8 125 10 40 4 190 14
320 20 39 2 146 5 240 6 l169 2 26 -47 c74 -139 236 -216 383 -185 178 39 319
204 313 366 -4 99 -39 176 -117 254 -101 102 -202 133 -329 100z"/>
<path d="M5174 3775 c-55 -41 -103 -78 -109 -83 -5 -4 -57 -44 -115 -88 -58
-44 -172 -132 -255 -195 -82 -63 -199 -153 -260 -199 -60 -46 -148 -113 -194
-148 l-84 -65 -356 -2 c-196 -1 -376 -5 -401 -8 -25 -4 -106 -13 -180 -22 -74
-8 -157 -20 -185 -25 -27 -5 -61 -11 -75 -14 -92 -16 -217 -48 -236 -61 -77
-50 -78 -174 -2 -237 38 -33 74 -35 188 -14 41 8 91 17 110 20 19 3 78 12 130
20 139 21 182 26 315 32 66 3 155 9 198 13 131 12 396 6 627 -14 25 -3 77 -7
115 -10 39 -3 81 -8 95 -10 14 -2 50 -6 80 -10 30 -3 66 -8 80 -11 52 -10 67
-12 120 -19 30 -4 64 -9 75 -11 11 -2 34 -7 50 -10 275 -49 597 -135 885 -236
210 -73 250 -92 251 -120 3 -84 44 -172 113 -240 77 -77 168 -117 278 -123
307 -18 510 328 363 619 -35 70 -101 130 -184 170 -61 29 -74 31 -171 31 -96
0 -110 -3 -160 -28 -30 -16 -78 -48 -106 -72 l-51 -44 -74 28 c-304 117 -822
264 -1081 306 -18 3 -109 18 -202 33 l-169 27 209 155 c114 85 265 197 334
248 69 51 132 98 140 105 60 49 80 58 117 51 89 -15 524 -145 619 -184 16 -6
23 -21 28 -61 24 -181 210 -336 402 -336 119 0 231 55 306 151 168 214 99 505
-147 617 -135 61 -267 46 -410 -45 l-71 -45 -139 45 c-231 75 -397 121 -530
149 -69 14 -137 30 -151 35 -14 6 -27 10 -28 10 -2 0 -48 -34 -102 -75z"/>
<path d="M1252 3319 c-112 -21 -223 -108 -276 -219 -27 -57 -31 -75 -30 -150
0 -72 4 -94 28 -143 52 -108 156 -191 271 -217 242 -54 485 192 430 435 -44
194 -237 327 -423 294z"/>
<path d="M1764 2422 c-6 -4 -34 -70 -63 -147 -28 -77 -80 -216 -114 -308 l-63
-168 -184 -75 c-102 -42 -242 -98 -312 -126 -118 -47 -128 -54 -128 -77 0 -24
11 -31 158 -89 86 -35 166 -68 177 -73 11 -5 81 -33 155 -63 l134 -54 124
-293 c68 -162 130 -300 137 -307 26 -28 49 4 104 145 29 76 59 152 67 168 7
17 27 68 45 115 30 80 43 114 74 185 11 28 32 39 221 115 336 135 408 167 413
182 2 7 0 10 -4 5 -5 -4 -15 -1 -24 7 -9 8 -52 28 -96 46 -44 17 -93 37 -110
45 -16 7 -116 48 -221 90 -190 77 -190 77 -208 119 -10 22 -66 154 -123 291
-58 138 -110 256 -115 263 -12 14 -28 15 -44 4z"/>
<path d="M3740 1737 c-3 -3 -41 -7 -85 -11 -44 -3 -93 -8 -110 -10 -16 -2 -57
-7 -90 -11 -33 -3 -71 -8 -85 -10 -14 -2 -47 -6 -75 -10 -117 -14 -275 -48
-303 -65 -45 -28 -65 -63 -64 -116 2 -81 63 -154 130 -154 11 0 62 9 113 19
52 11 112 22 134 25 23 4 50 8 61 10 12 2 45 7 74 11 29 4 60 8 69 10 20 4
140 15 251 24 47 4 168 6 270 5 229 -3 332 -11 535 -40 121 -17 137 -20 295
-50 119 -23 287 -69 298 -82 6 -9 12 -25 12 -36 0 -39 59 -145 105 -192 27
-26 75 -59 113 -77 59 -27 78 -30 162 -31 87 -1 100 2 160 31 75 37 104 61
147 123 62 91 83 205 54 293 -64 195 -239 324 -422 310 -70 -5 -164 -51 -220
-106 l-42 -44 -81 24 c-70 20 -279 70 -371 88 -16 3 -41 8 -55 10 -71 14 -158
26 -290 41 -30 3 -66 8 -80 10 -33 7 -604 17 -610 11z"/>
</g>
</svg>
